# xmcd
#
# Track frame offsets: 
#        150
#        46880
#        88797
#        135645
#        164035
#
# Disc length: 2673 seconds
#
# Revision: 2
# Processed by: cddbd v1.5.2PL0 Copyright (c) Steve Scherf et al.
# Submitted via: ExactAudioCopy v0.99pb1
#
DISCID=3f0a6f05
DTITLE=Art Blakey - live at Bubbas
DYEAR=1980
DGENRE=Jazz
TTITLE0=moanin´
TTITLE1=my funny valentine
TTITLE2=soulful mister Timmons
TTITLE3=my ideal
TTITLE4=free for all
EXTD=
EXTT0=
EXTT1=
EXTT2=
EXTT3=
EXTT4=
PLAYORDER=
